<svg xmlns="http://www.w3.org/2000/svg" xmlns:xlink="http://www.w3.org/1999/xlink" width="1080" zoomAndPan="magnify" viewBox="0 0 810 809.999993" height="1080" preserveAspectRatio="xMidYMid meet" version="1.0"><defs><clipPath id="e02f5e2d0e"><path d="M 55.273438 416.222656 L 356 416.222656 L 356 633.152344 L 55.273438 633.152344 Z M 55.273438 416.222656 " clip-rule="nonzero"/></clipPath><clipPath id="e4848bf42d"><path d="M 55.273438 176.789062 L 754.601562 176.789062 L 754.601562 574 L 55.273438 574 Z M 55.273438 176.789062 " clip-rule="nonzero"/></clipPath></defs><g clip-path="url(#e02f5e2d0e)"><path fill="#886600" d="M 97.28125 533.167969 C 97.070312 502.304688 122.660156 476.5625 153.527344 476.597656 C 184.542969 476.628906 209.921875 501.496094 210.015625 531.976562 C 210.121094 563.273438 184.109375 589.636719 153.527344 589.25 C 122.941406 588.867188 97.503906 563.496094 97.28125 533.167969 Z M 237.398438 588.5625 C 248.667969 571.878906 255.402344 553.277344 260.324219 533.953125 C 266.625 509.191406 279.636719 490.203125 303.980469 479.671875 C 321.246094 472.199219 338.339844 464.285156 355.371094 456.253906 L 276.914062 416.28125 C 261.1875 424.054688 243.59375 432.578125 229.425781 439.207031 C 224.082031 441.710938 218.363281 439.816406 212.847656 439.382812 C 191.789062 437.710938 170.839844 434.25 149.644531 435.105469 C 99.429688 437.125 65.527344 467.722656 56.617188 518.730469 C 48.972656 562.5 74.679688 607.558594 117.25 625.015625 C 162.949219 643.742188 209.714844 629.550781 237.398438 588.5625 " fill-opacity="1" fill-rule="nonzero"/></g><g clip-path="url(#e4848bf42d)"><path fill="#886600" d="M 97.28125 276.773438 C 97.503906 246.445312 122.941406 221.074219 153.527344 220.6875 C 184.109375 220.304688 210.121094 246.679688 210.015625 277.976562 C 209.921875 308.441406 184.542969 333.320312 153.527344 333.34375 C 122.660156 333.378906 97.070312 307.636719 97.28125 276.773438 Z M 406.566406 404.953125 C 406.566406 404.953125 406.566406 404.964844 406.566406 404.976562 C 406.566406 404.976562 406.566406 404.988281 406.566406 404.988281 C 406.566406 420.128906 394.304688 432.390625 379.164062 432.390625 C 364.035156 432.390625 351.761719 420.128906 351.761719 404.988281 C 351.761719 404.988281 351.773438 404.976562 351.773438 404.976562 C 351.773438 404.964844 351.761719 404.953125 351.761719 404.953125 C 351.761719 389.8125 364.035156 377.546875 379.164062 377.546875 C 394.304688 377.546875 406.566406 389.8125 406.566406 404.953125 Z M 229.425781 370.734375 C 252.691406 381.605469 299.746094 404.777344 299.335938 404.976562 L 388.167969 446.957031 C 465.84375 483.210938 543.425781 519.675781 623.402344 550.671875 C 646.398438 559.578125 669.359375 568.863281 694.015625 572.253906 C 707.203125 574.0625 720.507812 574.179688 733.355469 569.914062 C 744.757812 566.125 752.742188 559.054688 754.4375 546.320312 C 755.171875 540.792969 753.558594 537.691406 748.136719 535.226562 C 690.019531 508.769531 632.042969 482.03125 574.03125 455.375 C 540.746094 440.085938 466.226562 405.09375 466.484375 404.976562 C 466.226562 404.847656 540.746094 369.855469 574.03125 354.5625 C 632.042969 327.910156 690.019531 301.171875 748.136719 274.726562 C 753.558594 272.246094 755.171875 269.148438 754.4375 263.617188 C 752.742188 250.886719 744.757812 243.8125 733.355469 240.027344 C 720.507812 235.757812 707.203125 235.875 694.015625 237.6875 C 669.359375 241.078125 646.398438 250.363281 623.402344 259.269531 C 543.425781 290.261719 465.84375 326.738281 388.167969 362.980469 C 383.628906 365.097656 380.050781 365.378906 375.363281 363.15625 C 351.691406 351.910156 328.015625 340.664062 303.980469 330.269531 C 279.636719 319.734375 266.625 300.761719 260.324219 275.988281 C 255.402344 256.664062 248.667969 238.0625 237.398438 221.378906 C 209.714844 180.390625 162.949219 166.195312 117.25 184.9375 C 74.679688 202.382812 48.972656 247.4375 56.617188 291.210938 C 65.527344 342.21875 99.429688 372.824219 149.644531 374.835938 C 170.839844 375.691406 191.789062 372.230469 212.847656 370.570312 C 218.363281 370.125 224.082031 368.230469 229.425781 370.734375 " fill-opacity="1" fill-rule="nonzero"/></g></svg>
